<svg width="190" height="79" viewBox="0 0 230 119" fill="none" xmlns="http://www.w3.org/2000/svg">
<path d="M32.5918 58.3089C32.5918 58.3089 22.5657 57.8708 14.4246 71.3971C14.4246 71.3971 10.2174 78.5436 16.692 77.6674L31.7176 74.765C31.7176 74.765 39.8041 73.9709 39.3943 67.6459C39.3396 67.6185 40.0226 66.1126 32.5918 58.3089Z" fill="url(#paint0_linear)"/>
<path d="M12.9493 0.0692139C12.9493 0.0692139 10.955 8.39308 11.4194 14.2527L41.4432 53.216L45.5411 62.2518L48.273 53.6268C48.273 53.6268 51.8791 44.1803 44.8581 37.0885C44.8854 37.0612 18.3039 7.3526 12.9493 0.0692139Z" fill="url(#paint1_linear)"/>
<path d="M11.4194 13.5681C11.4194 13.5681 10.5998 27.8063 20.8991 43.085C20.8991 43.085 25.68 50.7517 33.2474 58.5554C33.2474 58.5554 40.6509 65.428 39.0664 70.0554C39.0664 70.0554 38.7112 72.5745 33.1108 74.3543C33.1108 74.3543 40.5689 74.0257 43.7926 66.9614L46.2786 60.1982C46.2786 60.1982 47.3168 53.7637 40.4597 47.1374C40.487 47.11 23.3305 29.7778 11.4194 13.5681Z" fill="url(#paint2_linear)"/>
<path d="M33.1108 74.3543C33.1108 74.3543 36.1979 73.4233 37.6185 71.8626C37.6185 71.8626 40.9241 69.2066 37.4272 63.9495C37.4272 63.9495 28.8764 53.8458 26.7455 51.4636C26.7455 51.4636 21.1724 45.6315 17.293 36.8147C17.293 36.8147 20.4074 43.7969 27.4011 51.491C27.4011 51.491 36.7443 61.7316 38.1102 63.9221C38.1102 63.9221 41.4158 68.6864 38.2741 71.8352C38.2468 71.8078 36.3345 73.6424 33.1108 74.3543Z" fill="#878787"/>
<path d="M63.8449 60.6911C63.8449 60.6911 73.871 61.1292 82.0121 47.6029C82.0121 47.6029 86.2193 40.4564 79.7446 41.3326L64.7191 44.235C64.7191 44.235 56.6326 45.0291 57.0424 51.3541C57.097 51.3815 56.4141 52.8875 63.8449 60.6911Z" fill="url(#paint3_linear)"/>
<path d="M83.4874 118.931C83.4874 118.931 85.4817 110.607 85.0173 104.747L54.9935 65.784L50.8956 56.7482L48.1637 65.3733C48.1637 65.3733 44.5576 74.8198 51.5786 81.9115C51.5513 81.9389 78.1328 111.647 83.4874 118.931Z" fill="url(#paint4_linear)"/>
<path d="M85.0173 105.432C85.0173 105.432 85.8368 91.1937 75.5375 75.915C75.5375 75.915 70.7566 68.2483 63.1892 60.4447C63.1892 60.4447 55.7858 53.572 57.3703 48.9446C57.3703 48.9446 57.7254 46.4255 63.3258 44.6457C63.3258 44.6457 55.8677 44.9743 52.644 52.0386L50.158 58.8018C50.158 58.8018 49.1199 65.2364 55.977 71.8626C55.9497 71.89 73.1061 89.2222 85.0173 105.432Z" fill="url(#paint5_linear)"/>
<path d="M63.3258 44.6457C63.3258 44.6457 60.2387 45.5767 58.8181 47.1374C58.8181 47.1374 55.5125 49.7934 59.0094 55.0506C59.0094 55.0506 67.5603 65.1542 69.6912 67.5364C69.6912 67.5364 75.2643 73.3685 79.1436 82.1853C79.1436 82.1853 76.0292 75.2031 69.0355 67.509C69.0355 67.509 59.6924 57.2684 58.3264 55.0779C58.3264 55.0779 55.0208 50.3136 58.1625 47.1648C58.1898 47.1922 60.1021 45.3302 63.3258 44.6457Z" fill="#CA3731"/>
<path d="M131.713 69.67C131.148 70.0953 130.546 70.556 129.875 71.0168C129.203 71.4775 128.531 71.9028 127.859 72.3282C127.187 72.718 126.586 73.037 126.091 73.2851C125.949 73.3205 125.737 73.3205 125.454 73.2851C125.171 73.2497 124.889 73.1433 124.606 72.9661C124.323 72.7889 124.075 72.5763 123.863 72.2927C123.651 72.0092 123.545 71.6547 123.545 71.2649C123.545 70.9105 123.651 70.4497 123.828 69.8472C124.005 69.2801 124.217 68.6776 124.5 68.0042C124.782 67.3662 125.065 66.6928 125.384 66.0549C125.702 65.3815 125.985 64.7789 126.268 64.2119C126.551 63.6448 126.763 63.184 126.94 62.7942C127.116 62.4043 127.222 62.1562 127.258 62.0499C127.293 61.7663 127.435 61.5891 127.647 61.4828C127.859 61.3765 128.071 61.3765 128.283 61.4474C128.495 61.5183 128.637 61.66 128.708 61.9081C128.814 62.1562 128.743 62.4752 128.531 62.9005C127.753 64.3536 127.187 65.4523 126.763 66.2321C126.338 67.0118 126.056 67.5789 125.879 67.9333C125.702 68.2877 125.596 68.5004 125.56 68.6067C125.525 68.6776 125.49 68.7485 125.49 68.8194C125.454 68.8902 125.419 68.9966 125.348 69.1738C125.278 69.351 125.101 69.7409 124.818 70.2725C124.535 70.8396 124.393 71.2649 124.393 71.5839C124.393 71.9029 124.464 72.1155 124.606 72.2573C124.747 72.399 124.959 72.4699 125.207 72.4345C125.454 72.4345 125.667 72.399 125.914 72.3636C126.338 72.2573 126.869 72.0446 127.505 71.7256C128.142 71.3712 128.814 71.0168 129.486 70.5915C130.158 70.1662 130.794 69.7409 131.36 69.3156C131.961 68.8902 132.385 68.5358 132.704 68.2169C132.916 68.0042 133.057 67.8979 133.128 67.8624C133.234 67.827 133.269 67.8624 133.269 67.9333C133.269 68.0042 133.269 68.1105 133.199 68.2523C133.128 68.3941 133.022 68.5004 132.88 68.6067C132.668 68.8902 132.279 69.2447 131.713 69.67ZM129.875 59.498C129.38 59.9588 128.955 60.1714 128.637 60.1006C128.142 59.9942 127.894 59.817 127.894 59.5335C127.894 59.2145 128.142 58.7892 128.672 58.293C129.203 57.7614 129.592 57.4424 129.91 57.3715C130.158 57.3361 130.405 57.4069 130.617 57.5842C130.829 57.7614 130.9 57.974 130.829 58.1867C130.759 58.5411 130.44 59.0018 129.875 59.498Z" fill="#9C200E"/>
<path d="M143.418 63.3613C143.595 63.3967 143.772 63.503 143.913 63.6802C144.055 63.822 144.126 63.9992 144.126 64.1764C144.09 64.46 143.949 64.7081 143.772 64.9916C143.418 66.0903 142.994 67.3663 142.463 68.9257C141.968 70.4497 141.367 72.2218 140.66 74.2775C144.09 73.675 147.343 73.356 150.42 73.356C150.986 73.356 151.481 73.356 151.87 73.3914C152.294 73.4269 152.648 73.4623 152.966 73.4978C153.214 73.5332 153.461 73.6395 153.709 73.8168C153.956 73.9585 154.204 74.1712 154.416 74.4193C154.628 74.6674 154.805 74.9155 154.946 75.1636C155.088 75.4471 155.158 75.7306 155.158 76.0142C155.158 76.2977 155.088 76.5458 154.982 76.7585C154.699 77.3255 153.956 78.0698 152.789 78.9913C152.577 79.1686 152.436 79.2749 152.294 79.2749C152.259 79.2749 152.223 79.2749 152.223 79.2394C152.223 79.0977 152.33 78.9559 152.577 78.8141C153.921 77.5737 154.557 76.4749 154.557 75.4826C154.557 74.6674 153.992 74.2066 152.895 74.1357C152.577 74.1003 152.223 74.1003 151.799 74.1003C151.375 74.1003 150.915 74.1003 150.385 74.1003C148.334 74.1003 146.495 74.1712 144.833 74.2775C143.171 74.3838 141.686 74.5965 140.412 74.9155C133.764 93.8771 125.737 103.659 116.296 104.262C113.042 104.439 110.072 103.447 107.384 101.32C104.661 99.1935 103.318 96.7834 103.318 94.1252C103.318 93.2746 103.494 92.4594 103.848 91.5734C105.545 87.533 110.956 83.7406 120.009 80.1609C126.162 77.7154 132.633 75.837 139.387 74.561C139.917 73.3914 140.519 71.5484 141.226 69.0675C141.332 68.6776 141.438 68.3232 141.509 68.0042C141.579 67.6852 141.686 67.3662 141.756 67.1182C141.367 67.4726 140.837 67.8979 140.165 68.4295C139.493 68.9257 138.644 69.5637 137.619 70.2725C136.346 71.1586 135.214 71.9029 134.295 72.47C133.34 73.037 132.562 73.4623 131.89 73.7813C131.713 73.8522 131.501 73.8876 131.254 73.8876C130.44 73.8876 130.051 73.4978 130.051 72.6826C130.051 72.3636 130.157 72.0092 130.37 71.6193C131.431 69.4573 133.269 67.5435 135.886 65.8777C138.503 64.2473 140.978 63.4321 143.277 63.4321C143.312 63.2904 143.383 63.3258 143.418 63.3613ZM104.237 94.586C104.237 96.9606 105.404 99.0872 107.773 100.895C110.284 102.809 113.078 103.695 116.189 103.553C121.635 103.34 126.798 99.2644 131.713 91.3253C133.234 88.8798 134.613 86.2925 135.851 83.5989C137.088 80.9052 138.22 78.0344 139.21 74.9864C131.077 76.6876 123.969 78.9559 117.887 81.7204C110.532 85.1583 106.111 88.7026 104.626 92.424C104.378 93.1328 104.237 93.8417 104.237 94.586ZM142.11 64.9916C142.11 64.9562 142.075 64.9562 142.11 64.9916L142.075 64.9207C142.075 64.8498 142.075 64.8144 142.11 64.779C142.11 64.3891 142.039 64.1764 141.862 64.141C141.615 64.0347 141.084 64.1056 140.306 64.3182C138.68 64.7081 137.018 65.5232 135.426 66.7637C133.729 68.1105 132.633 69.4928 132.138 70.875C132.102 70.9814 132.102 71.0877 132.102 71.1586C132.102 71.2295 132.102 71.3003 132.102 71.4421C132.102 72.151 132.385 72.5408 132.916 72.5408C133.375 72.5408 134.755 71.7257 137.053 70.0599C137.973 69.4219 138.786 68.8194 139.458 68.2877C140.13 67.7561 140.695 67.2954 141.155 66.8701C141.721 66.4093 142.039 65.8068 142.11 64.9916Z" fill="#9C200E"/>
<path d="M143.206 72.0446C143.1 71.9383 143.135 71.7611 143.277 71.513C143.807 70.4143 144.656 68.9257 145.894 67.0118C146.495 66.1257 147.025 65.3106 147.556 64.6017C148.086 63.8929 148.546 63.2549 149.005 62.7233C149.076 62.6169 149.182 62.5106 149.288 62.4397C149.394 62.3688 149.607 62.3334 149.854 62.2625C149.996 62.2271 150.066 62.2271 150.102 62.2625C150.102 62.3688 150.066 62.4397 149.996 62.5106C149.147 63.503 148.404 64.4954 147.803 65.4523C147.202 66.4447 146.636 67.4371 146.212 68.4295C146.106 68.5358 146.07 68.6776 146.07 68.8548C146.07 69.1029 146.176 69.2092 146.353 69.2092C146.495 69.2092 146.636 69.1383 146.742 68.9611C147.379 68.3586 148.015 67.7561 148.723 67.1536C149.394 66.551 150.102 65.9485 150.844 65.3814C152.542 64.0346 153.673 63.2549 154.239 63.0068C154.557 62.7233 154.84 62.5461 155.088 62.4752C155.583 62.2625 155.972 62.1916 156.255 62.3334C156.573 62.4397 156.573 62.6878 156.219 63.1131C154.628 65.1688 153.178 67.5434 151.905 70.2016C150.667 72.8598 149.996 74.9863 149.925 76.5458C149.819 77.5736 150.031 78.3888 150.561 78.9559C151.021 79.4521 151.658 79.7002 152.4 79.7002C152.754 79.7002 153.072 79.6647 153.39 79.5584C154.663 79.204 156.29 78.2116 158.2 76.5458C160.321 74.7028 161.418 73.2497 161.418 72.1509C161.418 71.9383 161.382 71.7611 161.276 71.6547C161.17 71.5484 161.064 71.4775 160.922 71.4421C160.781 71.4066 160.675 71.4067 160.569 71.4067C160.463 71.4067 160.427 71.3712 160.427 71.3003C160.427 71.1586 160.534 71.0522 160.71 70.9459C160.887 70.8396 161.064 70.8041 161.241 70.8041C161.63 70.8041 161.807 71.0522 161.807 71.5839C161.807 71.832 161.736 72.1509 161.594 72.5762C161.382 73.2142 161.029 73.9231 160.498 74.6319C159.968 75.3408 159.331 76.1205 158.553 76.9002C156.396 79.0268 154.062 80.2318 151.552 80.5153C150.667 80.6217 149.925 80.3736 149.324 79.771C148.687 79.0976 148.44 78.0344 148.546 76.5812C148.687 74.9509 149.394 72.9307 150.667 70.4497C151.198 69.4219 151.728 68.4295 152.294 67.4725C152.86 66.5156 153.496 65.5941 154.133 64.6726C154.204 64.5663 154.239 64.4599 154.239 64.3182C154.239 63.9638 154.027 63.7865 153.638 63.7865C153.461 63.7865 153.284 63.8574 153.107 63.9638C151.834 64.8498 150.561 65.9131 149.288 67.1536C148.015 68.3586 146.707 69.7409 145.399 71.3003C145.186 71.5839 144.585 71.832 143.666 72.0446C143.383 72.2573 143.241 72.1864 143.206 72.0446Z" fill="#9C200E"/>
<path d="M155.158 72.8243C154.593 72.8243 154.31 72.4345 154.31 71.6547C154.31 70.0598 155.547 68.0042 158.058 65.4878C159.19 64.3536 160.286 63.3967 161.311 62.6878C162.337 61.979 163.256 61.4473 164.14 61.0929C164.353 61.022 164.565 60.9511 164.812 60.9157C165.06 60.8448 165.307 60.8448 165.555 60.8448C165.838 60.8448 166.085 60.8803 166.368 60.9157C166.651 60.9866 166.899 61.0575 167.182 61.1284C167.571 61.1638 167.783 61.1992 167.818 61.1638C168.207 61.0929 168.525 60.9511 168.702 60.7385C168.738 60.703 168.808 60.6676 168.914 60.6676C169.02 60.6676 169.091 60.7385 169.162 60.8448C169.233 60.9511 169.268 61.022 169.233 61.0929C168.596 62.1207 167.924 63.1131 167.288 64.0701C166.651 65.0625 166.015 66.0548 165.413 67.0472C164.954 67.827 164.494 68.7485 164.034 69.7763C163.575 70.8041 163.186 71.8319 162.797 72.8952C162.443 73.9585 162.089 74.9509 161.842 75.8724C161.559 76.8293 161.382 77.6091 161.311 78.2825C161.276 78.3888 161.276 78.4951 161.276 78.6014C161.276 78.7078 161.276 78.8141 161.276 78.9559C161.276 79.7356 161.524 80.3027 161.983 80.6571C162.443 81.0115 163.08 81.2242 163.893 81.2242C164.706 81.2242 165.484 81.0824 166.298 80.8343C167.5 80.4444 169.056 79.4521 170.965 77.928C171.885 77.1837 172.698 76.404 173.441 75.6243C174.183 74.8446 174.82 74.1003 175.35 73.3914C175.562 73.1788 175.704 73.037 175.739 73.037C175.775 73.0724 175.775 73.1079 175.775 73.1433C175.775 73.2496 175.739 73.356 175.633 73.4977C175.103 74.2775 174.502 75.0926 173.759 75.9433C173.016 76.7939 172.168 77.6445 171.142 78.4951C170.187 79.2748 169.339 79.8774 168.596 80.3736C167.853 80.8697 167.146 81.2242 166.51 81.4723C166.191 81.5786 165.873 81.6849 165.555 81.7204C165.237 81.7912 164.918 81.7913 164.529 81.7913C163.999 81.7913 163.504 81.7204 163.044 81.5431C162.585 81.3659 162.196 81.1533 161.842 80.9052C161.418 80.6571 161.099 80.3027 160.958 79.8419C160.781 79.3812 160.71 78.8495 160.746 78.2825C160.781 77.8217 160.852 77.1837 161.029 76.404C161.205 75.6243 161.418 74.7737 161.7 73.8876C161.983 73.0015 162.266 72.1155 162.585 71.2294C162.903 70.3434 163.221 69.5636 163.539 68.8902C163.928 68.0751 164.282 67.3308 164.671 66.6219C165.024 65.9131 165.413 65.2751 165.802 64.708C165.944 64.4599 165.944 64.3536 165.767 64.3536C165.732 64.3536 165.696 64.3891 165.661 64.4245C165.131 65.0625 164.459 65.7713 163.716 66.4801C162.973 67.189 162.089 68.0042 161.099 68.8548C159.119 70.5206 157.422 71.7611 156.007 72.6117C155.618 72.7535 155.371 72.8243 155.158 72.8243ZM156.325 70.4851C156.325 71.0168 156.538 71.3003 156.927 71.3003C157.068 71.3003 157.245 71.2294 157.422 71.1231C158.695 70.3434 160.003 69.2801 161.418 67.9333C162.797 66.5865 164.317 64.9561 165.909 63.0422C165.979 62.9714 166.015 62.9005 166.015 62.7941C166.015 62.546 165.873 62.298 165.59 62.0853C165.307 61.8726 164.918 61.7663 164.494 61.7663C164.247 61.7663 163.999 61.8018 163.716 61.8726C162.655 62.1562 161.311 63.184 159.685 64.9561C158.907 65.8067 158.27 66.6219 157.74 67.4371C157.209 68.2168 156.785 68.9966 156.467 69.7054C156.361 69.9535 156.325 70.2016 156.325 70.4851Z" fill="#9C200E"/>
<path d="M163.645 89.7658C163.044 89.1278 162.655 88.3835 162.514 87.5684C162.372 86.7532 162.266 85.8671 162.266 84.8748C162.266 81.685 163.575 77.1483 166.156 71.2295C167.288 68.6067 168.455 66.2675 169.586 64.1764C170.718 62.0853 171.885 60.2069 173.016 58.5411C173.299 58.2575 173.405 57.9031 173.405 57.5133C173.405 57.1234 173.193 56.8044 172.804 56.5563C171.991 56.2373 171.673 55.8829 171.849 55.493C171.92 55.3513 172.238 55.2449 172.84 55.1741C173.441 55.1032 174.289 55.0677 175.35 55.0677C175.456 55.0677 175.456 55.0323 175.386 54.9614C175.315 54.8905 175.315 54.8196 175.35 54.7488C176.446 53.0475 177.684 51.3817 179.099 49.6805C180.513 48.0147 181.998 46.2426 183.554 44.4705C183.696 44.3287 184.332 44.0097 185.428 43.5844C185.959 43.4072 186.348 43.2654 186.595 43.1591C186.843 43.0528 187.09 43.0173 187.338 43.0173C187.586 43.0173 187.692 43.1237 187.692 43.3363C187.692 43.4426 187.586 43.5135 187.338 43.5844C185.216 44.0097 181.715 47.5894 176.835 54.288C176.482 54.8196 176.553 55.0677 177.083 55.0677H181.963C183.307 55.0677 184.332 55.0677 185.039 55.0677C185.782 55.0677 186.242 55.0677 186.419 55.0677C186.631 55.0677 186.772 55.1032 186.808 55.1741C186.808 55.2095 186.737 55.3513 186.631 55.5285C186.489 55.7057 186.348 55.812 186.136 55.8475C184.863 55.8829 183.377 55.9538 181.751 56.0601C180.089 56.1664 178.215 56.2728 176.093 56.3791C175.704 56.45 175.421 56.6272 175.244 56.9107C174.042 58.6829 172.91 60.4195 171.885 62.1562C170.824 63.8929 169.798 65.7713 168.773 67.7915C167.217 71.0168 165.979 73.9231 165.095 76.5812C164.211 79.204 163.645 81.5786 163.469 83.6697C163.433 83.9533 163.433 84.2368 163.433 84.4849C163.433 84.7684 163.433 85.0165 163.433 85.3001C163.433 89.2342 164.812 91.1835 167.571 91.1835C168.349 91.1835 169.233 91.0417 170.187 90.7582C171.602 90.2974 173.016 89.5886 174.395 88.6316C175.775 87.6747 177.189 86.3988 178.639 84.8393C180.124 83.2799 181.256 81.8267 182.069 80.4799C182.882 79.1331 183.342 77.8572 183.519 76.6167C183.519 74.4901 182.776 73.5686 181.256 73.8167C180.902 73.8522 180.619 73.9585 180.372 74.1357C180.124 74.2775 179.947 74.3838 179.841 74.3838C179.629 74.3838 179.523 74.2775 179.558 74.0648C179.664 73.8876 179.841 73.7104 180.053 73.6041C180.266 73.4623 180.655 73.2851 181.256 73.037C181.362 73.0016 181.468 73.0016 181.645 73.0016C182.352 73.0016 183.059 73.4978 183.696 74.4547C184.368 75.4825 184.686 76.2268 184.65 76.7585C184.191 79.7356 182.069 82.9609 178.215 86.4697C176.27 88.2418 174.431 89.5532 172.733 90.4747C171.036 91.3607 169.445 91.8215 167.924 91.8215C166.298 91.8215 164.812 91.1126 163.645 89.7658Z" fill="#9C200E"/>
<path d="M184.757 64.708C184.368 65.3814 184.014 66.0903 183.66 66.7991C183.307 67.508 182.988 68.2168 182.741 68.8902C182.458 69.5636 182.317 70.1307 182.246 70.5915C182.175 70.9813 182.175 71.3003 182.246 71.4775C182.317 71.6547 182.387 71.7611 182.493 71.7965C182.599 71.8319 182.741 71.8319 182.918 71.7965C183.095 71.7611 183.236 71.6902 183.413 71.6547C183.554 71.6193 183.766 71.5484 183.979 71.4421C184.191 71.3357 184.368 71.2294 184.509 71.1585C184.863 70.9104 185.075 70.875 185.11 71.0877C185.146 71.2649 185.039 71.513 184.757 71.7611C184.544 72.0092 184.261 72.2573 183.943 72.4699C183.625 72.6826 183.307 72.8598 183.024 72.9661C182.882 73.0015 182.706 73.0015 182.529 72.8952C182.317 72.7889 182.14 72.6826 181.963 72.5053C181.786 72.3281 181.645 72.1509 181.539 71.9383C181.433 71.7256 181.362 71.513 181.362 71.2649C181.362 70.8396 181.397 70.3788 181.503 69.9181C181.609 69.4573 181.751 68.9966 181.892 68.5358C182.034 68.0751 182.21 67.6497 182.423 67.189C182.599 66.7637 182.776 66.3384 182.953 65.9485C183.095 65.5941 183.095 65.346 182.953 65.1333C182.812 64.9207 182.564 65.027 182.14 65.4169C181.609 65.9485 180.902 66.6574 180.018 67.4725C179.169 68.2877 178.285 69.1029 177.401 69.9181C176.517 70.7332 175.704 71.4421 174.961 72.0446C174.219 72.6471 173.653 73.037 173.299 73.1433C172.698 73.356 172.203 73.2496 171.814 72.8598C171.425 72.4699 171.248 71.9737 171.319 71.4066C171.354 70.875 171.496 70.3079 171.743 69.5991C171.991 68.9257 172.274 68.2168 172.663 67.508C173.016 66.7991 173.441 66.0903 173.865 65.346C174.289 64.6017 174.749 63.9283 175.209 63.2549C175.668 62.6169 176.093 62.0144 176.482 61.4828C176.871 60.9512 177.224 60.5258 177.507 60.1714C177.613 60.0296 177.755 59.9233 177.967 59.8879C178.144 59.817 178.321 59.817 178.462 59.8879C178.604 59.9233 178.674 60.0296 178.71 60.1714C178.745 60.3132 178.639 60.5258 178.427 60.8094C177.896 61.4473 177.366 62.1562 176.8 63.0068C176.234 63.8574 175.669 64.6726 175.173 65.5587C174.643 66.4093 174.183 67.2599 173.759 68.0751C173.335 68.8902 173.052 69.5991 172.91 70.2016C172.627 71.1231 172.663 71.7256 172.91 71.9737C173.193 72.2218 173.618 72.2218 174.183 71.9028C175.067 71.3712 175.987 70.6623 176.977 69.7408C177.967 68.8548 178.922 67.9333 179.877 66.9409C180.831 65.984 181.751 65.027 182.635 64.1055C183.519 63.184 184.297 62.4043 184.969 61.8018C185.181 61.5891 185.358 61.5182 185.499 61.5891C185.641 61.66 185.782 61.8018 185.853 61.979C185.959 62.1562 185.994 62.3688 185.994 62.5815C185.994 62.7941 185.994 62.9714 185.924 63.0777C185.499 63.4321 185.146 63.9992 184.757 64.708Z" fill="#9C200E"/>
<path d="M185.039 73.4623C185.004 73.356 185.004 73.2497 185.075 73.1079C187.267 69.7409 188.753 67.1182 189.53 65.3106C189.672 64.9562 189.743 64.7081 189.743 64.46C189.743 64.4245 189.707 64.2828 189.637 64.1056C189.601 63.9992 189.601 63.9283 189.637 63.8575C189.919 63.7511 190.733 63.2904 192.183 62.4398C192.218 62.4043 192.253 62.3689 192.324 62.3689C192.466 62.3689 192.536 62.4398 192.607 62.5461C192.713 62.6879 192.678 62.7942 192.572 62.9005C191.864 63.8929 191.228 64.7435 190.733 65.4878C190.238 66.2321 189.849 66.8346 189.601 67.3308C189.53 67.4726 189.495 67.5789 189.495 67.6852C189.495 67.7916 189.601 67.827 189.849 67.7207C190.061 67.6143 190.202 67.5435 190.238 67.4371C191.122 66.3739 192.253 65.2752 193.633 64.141C195.082 62.9714 196.214 62.2271 196.992 61.8727C197.699 61.8372 198.194 61.9081 198.548 62.0853C198.583 62.1208 198.583 62.1208 198.583 62.1562C198.583 62.2271 198.548 62.3334 198.477 62.4398C198.406 62.5461 198.3 62.6879 198.194 62.7942C198.088 62.9005 197.982 62.9714 197.876 63.0423C197.77 63.1132 197.664 63.1132 197.593 63.0423C197.133 62.8296 196.532 62.936 195.754 63.3613C192.43 65.2043 189.46 68.2878 186.843 72.5408C186.843 72.6117 186.737 72.6826 186.56 72.7889C186.383 72.8598 186.171 72.9307 185.959 73.037C185.747 73.1434 185.464 73.2851 185.181 73.4623C185.11 73.5687 185.075 73.5687 185.039 73.4623Z" fill="#9C200E"/>
<path d="M210.005 63.503C209.51 63.8574 208.944 64.0701 208.308 64.1764C207.919 64.2473 207.353 64.2828 206.61 64.3182C205.868 64.3536 205.019 64.3536 204.135 64.3891C203.251 64.4245 202.332 64.4245 201.447 64.4245C200.563 64.4245 199.75 64.4245 199.078 64.4245C198.831 64.7789 198.583 65.1334 198.3 65.5587C198.017 65.984 197.77 66.4093 197.522 66.9055C197.275 67.3662 197.063 67.8624 196.886 68.3586C196.709 68.8548 196.603 69.3865 196.568 69.9181C196.532 70.4143 196.603 70.8041 196.709 71.1231C196.815 71.4421 196.992 71.6902 197.204 71.8674C197.416 72.0446 197.664 72.151 197.947 72.2218C198.23 72.2927 198.512 72.2927 198.795 72.2573C199.538 72.151 200.316 71.9383 201.165 71.6193C202.013 71.3003 202.721 70.9814 203.357 70.6269C203.534 70.5206 203.675 70.4852 203.746 70.5915C203.852 70.6624 203.781 70.7687 203.605 70.875C203.357 71.0522 203.074 71.2649 202.721 71.4776C202.367 71.6902 202.013 71.9029 201.624 72.1155C201.235 72.3282 200.811 72.5054 200.351 72.6826C199.927 72.8598 199.503 72.9661 199.078 73.037C198.725 73.1079 198.371 73.0725 197.982 72.9307C197.593 72.7889 197.204 72.5763 196.886 72.2573C196.532 71.9738 196.285 71.6193 196.037 71.2295C195.825 70.8396 195.719 70.4143 195.719 69.9535C195.79 68.7131 196.143 67.4726 196.744 66.2321C197.345 64.9916 198.123 63.822 199.008 62.7587C199.892 61.6955 200.846 60.774 201.801 59.9942C202.791 59.2145 203.675 58.6829 204.453 58.3639C204.878 58.2221 205.267 58.2575 205.585 58.3993C205.938 58.5765 206.186 58.8246 206.363 59.1436C206.54 59.4626 206.681 59.8525 206.716 60.2423C206.752 60.6322 206.681 61.022 206.469 61.341C206.115 61.979 205.514 62.5106 204.63 62.9359C203.746 63.3612 202.756 63.6802 201.624 63.8574C202.225 63.8574 202.862 63.8574 203.463 63.8574C204.1 63.8574 204.736 63.8574 205.302 63.8574C205.903 63.8574 206.434 63.822 206.929 63.822C207.424 63.7866 207.883 63.7511 208.237 63.7157C208.697 63.6802 209.192 63.5385 209.687 63.2904C210.182 63.0423 210.536 62.7942 210.818 62.5461C210.925 62.4043 211.031 62.3334 211.101 62.3689C211.172 62.4043 211.172 62.5106 211.066 62.6878C210.889 62.8296 210.536 63.1486 210.005 63.503ZM206.045 60.0651C206.08 59.7816 206.009 59.5689 205.868 59.4271C205.726 59.2854 205.549 59.2145 205.267 59.2145C205.019 59.2145 204.701 59.3208 204.383 59.498C203.534 59.9588 202.721 60.5967 201.836 61.3765C200.988 62.1562 200.174 62.9714 199.396 63.7866C199.998 63.7866 200.599 63.7157 201.235 63.5739C201.872 63.4321 202.473 63.2549 203.039 62.9714C203.605 62.7233 204.1 62.4043 204.559 62.0853C205.019 61.7309 205.373 61.3765 205.656 60.9866C205.903 60.6322 206.045 60.3132 206.045 60.0651Z" fill="#9C200E"/>
<path d="M102.434 64.0701C106.606 63.1131 111.239 62.4043 116.331 61.979C114.74 59.8524 112.971 57.5132 111.097 54.9259C109.223 52.3387 107.101 49.5033 104.803 46.3843C102.08 42.8047 100.701 39.544 100.701 36.6731C100.701 33.5188 102.363 30.8606 105.651 28.734C112.618 24.2329 120.822 22 130.193 22C133.623 22 136.487 22.3544 138.75 23.0633C140.448 23.6658 141.933 24.7291 143.206 26.2531C144.373 28.0606 144.974 29.9745 144.974 31.9947C144.974 32.6681 144.903 33.3415 144.797 34.015C144.691 34.6884 144.479 35.3972 144.196 36.1061C144.019 36.5668 143.807 36.9212 143.63 37.0984C143.489 37.3465 143.383 37.3465 143.347 37.0984C143.312 36.9212 143.347 36.4605 143.454 35.7871C143.56 35.1137 143.63 34.3694 143.63 33.5542C143.63 31.1796 142.959 29.1594 141.65 27.4581C140.412 25.9341 138.786 24.9063 136.77 24.3392C135.532 23.9493 134.224 23.7012 132.81 23.5595C131.395 23.4177 129.875 23.3468 128.283 23.3468C119.549 23.3468 112.406 25.4379 106.783 29.6555C103.954 31.6403 102.54 34.0504 102.54 36.8858C102.54 39.1541 103.707 42.0249 106.005 45.4628C107.384 47.1641 109.117 49.3615 111.274 52.0906C113.431 54.8196 115.906 58.0449 118.735 61.8372C119.549 61.8372 120.504 61.8372 121.635 61.8372C122.802 61.8372 124.146 61.8018 125.596 61.7663C126.126 61.7663 126.374 61.8726 126.374 62.0499C126.374 62.2979 125.525 62.4397 123.828 62.4752C121.458 62.5106 120.044 62.5815 119.513 62.6878C120.822 64.9207 121.494 67.189 121.494 69.4927C121.494 74.2066 118.983 77.6445 113.926 79.771C111.769 80.6571 109.541 81.3659 107.243 81.8267C104.944 82.2874 102.575 82.5355 100.135 82.5355C96.4927 82.5355 93.3808 82.0748 90.7994 81.1178C86.9449 79.8065 85 77.6091 85 74.5965C85 71.7611 87.0864 69.4573 91.2237 67.7206C94.5478 66.232 98.2608 65.027 102.434 64.0701ZM110.708 63.8574C108.905 64.1764 107.313 64.4599 106.005 64.7435C100.383 65.8776 95.7854 67.4017 92.2139 69.2801C88.2179 71.3003 86.2023 73.3914 86.2023 75.5179C86.2023 76.5103 86.8035 77.5382 88.0411 78.6369C88.8898 79.3812 89.8446 79.9128 90.9408 80.1963C92.32 80.5862 93.6637 80.8343 95.0428 80.9761C96.422 81.1178 97.8364 81.1887 99.2863 81.1887C101.797 81.1887 104.166 80.9052 106.429 80.3735C108.693 79.8419 110.885 79.0267 113.007 77.9989C117.215 75.8724 119.301 73.0015 119.301 69.4219C119.301 67.0472 118.488 64.9207 116.897 62.9714C114.598 63.2549 112.547 63.5384 110.708 63.8574Z" fill="#9C200E"/>
<defs>
<linearGradient id="paint0_linear" x1="13.1052" y1="67.9544" x2="39.363" y2="68.0849" gradientUnits="userSpaceOnUse">
<stop stop-color="#878787"/>
<stop offset="0.5948" stop-color="#4B4A4A"/>
<stop offset="1"/>
</linearGradient>
<linearGradient id="paint1_linear" x1="4.81771" y1="22.0993" x2="53.6926" y2="40.1238" gradientUnits="userSpaceOnUse">
<stop stop-color="#878787"/>
<stop offset="0.1665" stop-color="#7F7F7F"/>
<stop offset="0.4379" stop-color="#686867"/>
<stop offset="0.7784" stop-color="#414040"/>
<stop offset="1"/>
</linearGradient>
<linearGradient id="paint2_linear" x1="2.86802" y1="36.7696" x2="48.6987" y2="53.6714" gradientUnits="userSpaceOnUse">
<stop stop-color="#878787"/>
<stop offset="0.5948" stop-color="#4B4A4A"/>
<stop offset="1"/>
</linearGradient>
<linearGradient id="paint3_linear" x1="57.0708" y1="50.9859" x2="83.3667" y2="50.9859" gradientUnits="userSpaceOnUse">
<stop stop-color="#DB5857"/>
<stop offset="0.5993" stop-color="#B53326"/>
<stop offset="1" stop-color="#9C200E"/>
</linearGradient>
<linearGradient id="paint4_linear" x1="91.6165" y1="96.8972" x2="42.7416" y2="78.8727" gradientUnits="userSpaceOnUse">
<stop stop-color="#DB5857"/>
<stop offset="0.1624" stop-color="#D75350"/>
<stop offset="0.4132" stop-color="#CB463F"/>
<stop offset="0.7193" stop-color="#B53226"/>
<stop offset="1" stop-color="#9C200E"/>
</linearGradient>
<linearGradient id="paint5_linear" x1="93.5644" y1="82.2236" x2="47.7372" y2="65.323" gradientUnits="userSpaceOnUse">
<stop stop-color="#DB5857"/>
<stop offset="0.5993" stop-color="#B53326"/>
<stop offset="1" stop-color="#9C200E"/>
</linearGradient>
</defs>
</svg>
